<?xml version="1.0" encoding="utf-8"?>
<!-- Generator: Adobe Illustrator 25.4.1, SVG Export Plug-In . SVG Version: 6.00 Build 0)  -->
<svg version="1.1" id="Слой_1" xmlns="http://www.w3.org/2000/svg" xmlns:xlink="http://www.w3.org/1999/xlink" x="0px" y="0px"
	 viewBox="0 0 132.6 40" style="enable-background:new 0 0 132.6 40;" xml:space="preserve">
<style type="text/css">
	.st0{fill:#269156;}
</style>
<g>
	<g>
		<path id="Vector" class="st0" d="M3,35l3.1-3l0.2-5.5l-1.8-0.1l6.1-4.6l12.6-2.9L31,6.4l-0.7-1.1L26,0H0v40h1.8L3,35z"/>
		<path id="Vector_00000005250434371744197600000004931516569764463497_" class="st0" d="M27,0l6.3,5.2l2.6,2l4,3.2l-4.4,1.3
			l-3.1,9.8l4.2,5.6l-7.5,7.2l3.2-6.7l-4.6-1.1l-7.2,3.8l-6.3,0.2L13.5,33l-7.7,3.4L3,40h38V0H27z"/>
		<path id="Vector_00000118358461512709037280000013138274894704266384_" d="M58.4,11.2h4.3l-0.2,0.2v17.3l0.2,0.2h-4.3l0.2-0.2
			v-8.4L52.3,29h-1V11.4L51,11.2h4.3l-0.2,0.2v8.2l3.5-4.9v-3.4L58.4,11.2z"/>
		<path id="Vector_00000065069867280694308170000015512662594384157334_" d="M77.6,11v17.8l0.2,0.2h-4.3l0.2-0.2v-4.4l0.1-4.3
			L71.3,23l-2.6-2.9l0.1,4.4v4.3L69,29h-4.3l0.2-0.2V11h0.2l6.1,6.8l6.1-6.8H77.6z"/>
		<path id="Vector_00000083065766197777757820000006406806957206193290_" d="M90.5,28.8l0.2,0.2h-4.3l0.2-0.2V15h-2.8v13.8l0.2,0.2
			h-4.3l0.2-0.2V11.4l-0.2-0.2h11l-0.2,0.2L90.5,28.8z"/>
		<path id="Vector_00000065050095834199598900000012186222317616787598_" d="M100.3,26.1h-3.6l-0.7,2.7l0.2,0.2h-4.5l0.3-0.2
			l4.4-17.3l-0.2-0.2h4.6l-0.2,0.2l4.4,17.3l0.2,0.2h-4.5l0.2-0.2L100.3,26.1z M98.5,16.8l-0.9,5.6h1.9L98.5,16.8L98.5,16.8z"/>
		<path id="Vector_00000173121988970789422820000000309275201117777045_" d="M109.7,28.8l0.2,0.2h-4.5l0.3-0.2l4.4-17.3l-0.2-0.2
			h4.6l-0.2,0.2l4.5,17.3l0.2,0.2h-4.5l0.2-0.2l-1.5-6.3l-0.9-5.6h0l-0.9,5.6L109.7,28.8z"/>
		<path id="Vector_00000143588812848642930890000010506020221209860506_" d="M127.6,26.1h-3.6l-0.7,2.7l0.2,0.2h-4.5l0.3-0.2
			l4.4-17.3l-0.2-0.2h4.6l-0.2,0.2l4.4,17.3l0.2,0.2h-4.5l0.2-0.2L127.6,26.1z M125.8,16.8l-0.9,5.6h1.9L125.8,16.8L125.8,16.8z"/>
	</g>
</g>
</svg>
